<svg xmlns="http://www.w3.org/2000/svg" version="1.1" xmlns:xlink="http://www.w3.org/1999/xlink" xmlns:svgjs="http://svgjs.com/svgjs" width="1440" height="560" preserveAspectRatio="none" viewBox="0 0 1440 560"><g mask="url(&quot;#SvgjsMask1071&quot;)" fill="none"><rect width="1440" height="560" x="0" y="0" fill="rgba(14, 39, 96, 1)"></rect><path d="M165.208,608.918C190.457,607.665,213.744,594.605,225.811,572.391C237.37,551.111,234.258,525.496,221.805,504.726C209.731,484.588,188.64,472.811,165.208,471.317C138.451,469.611,109.459,474.324,94.554,496.61C78.193,521.073,77.533,554.064,93.204,578.974C108.039,602.556,137.382,610.299,165.208,608.918" fill="rgba(22, 194, 111, 0.4)" class="triangle-float1"></path><path d="M529.988,58.757C549.765,58.75,571.087,55.455,581.578,38.69C592.579,21.109,589.313,-1.401,578.83,-19.295C568.471,-36.977,550.481,-49.421,529.988,-49.374C509.57,-49.327,491.859,-36.686,481.532,-19.072C471.071,-1.231,467.4,21.171,478.331,38.728C488.793,55.531,510.194,58.764,529.988,58.757" fill="rgba(22, 194, 111, 0.4)" class="triangle-float1"></path><path d="M75.358,209.048C109.457,208.86,141.213,190.144,157.276,160.064C172.511,131.534,164.368,98.674,149.69,69.853C133.065,37.209,111.97,0.492,75.358,-0.782C37.445,-2.101,8.895,30.64,-8.506,64.35C-24.341,95.026,-25.452,131.109,-8.141,160.977C9.12,190.759,40.937,209.238,75.358,209.048" fill="rgba(22, 194, 111, 0.4)" class="triangle-float2"></path><path d="M1453.059,415.423C1498.315,415.488,1548.976,410.458,1571.834,371.399C1594.84,332.086,1574.243,285.435,1552.578,245.367C1529.359,202.424,1501.838,153.692,1453.059,151.731C1402.169,149.685,1362.799,191.928,1338.639,236.764C1315.871,279.017,1308.99,330.638,1334.875,371.057C1359.198,409.036,1407.959,415.358,1453.059,415.423" fill="rgba(22, 194, 111, 0.4)" class="triangle-float3"></path><path d="M860.899,294.753C913.365,296.908,968.145,278.23,994.072,232.567C1019.749,187.344,1005.026,132.511,978.375,87.855C952.513,44.52,911.334,11.157,860.899,9.421C807.462,7.582,754.02,32.255,728.529,79.256C703.986,124.508,718.469,178.49,745.413,222.355C770.9,263.848,812.244,292.755,860.899,294.753" fill="rgba(22, 194, 111, 0.4)" class="triangle-float2"></path><path d="M823.487,420.089C870.215,419.732,899.212,375.598,923.286,335.547C948.456,293.673,976.32,246.012,954.354,202.371C930.876,155.725,875.676,135.431,823.487,137.267C774.451,138.992,730.043,167.391,707.653,211.051C686.99,251.344,699.065,297.482,721.013,337.09C743.848,378.299,776.375,420.449,823.487,420.089" fill="rgba(22, 194, 111, 0.4)" class="triangle-float2"></path><path d="M1221.562,222.556C1263.922,223.226,1294.616,185.495,1313.372,147.508C1329.841,114.153,1328.76,75.564,1310.003,43.44C1291.414,11.604,1258.428,-9.759,1221.562,-9.724C1184.753,-9.689,1151.465,11.53,1133.409,43.606C1115.695,75.076,1118.689,112.286,1134.647,144.682C1153.071,182.082,1179.875,221.897,1221.562,222.556" fill="rgba(22, 194, 111, 0.4)" class="triangle-float3"></path><path d="M608.224,496.814C627.516,496.015,642.686,482.838,652.965,466.493C664.153,448.703,673.417,427.269,663.669,408.651C653.405,389.047,630.334,380.119,608.224,381.041C587.655,381.899,570.548,395.137,560.252,412.965C549.954,430.797,546.343,452.612,556.569,470.485C566.855,488.464,587.528,497.671,608.224,496.814" fill="rgba(22, 194, 111, 0.4)" class="triangle-float3"></path><path d="M915.474,629.062C944.13,628.342,969.087,611.94,984.127,587.538C1000.051,561.701,1008.335,529.334,993.132,503.066C977.95,476.835,945.758,470.131,915.474,468.921C882.152,467.589,843.691,467.963,826.266,496.397C808.378,525.587,821.467,562.739,840.57,591.148C857.307,616.038,885.489,629.816,915.474,629.062" fill="rgba(22, 194, 111, 0.4)" class="triangle-float3"></path><path d="M61.305,408.125C81.657,408.99,101.559,400.059,112.392,382.809C123.934,364.431,126.133,340.945,115.307,322.136C104.459,303.289,83.022,292.929,61.305,294.054C41.319,295.09,25.437,309.519,16.198,327.272C7.704,343.595,8.257,362.696,17.222,378.765C26.441,395.29,42.399,407.322,61.305,408.125" fill="rgba(22, 194, 111, 0.4)" class="triangle-float3"></path><path d="M392.494,264.104C411.347,263.261,424.536,247.498,433.623,230.958C442.292,215.18,447.181,196.426,438.272,180.782C429.289,165.008,410.617,157.689,392.494,158.737C376.059,159.688,363.83,171.669,355.052,185.595C345.435,200.851,336.692,218.669,344.455,234.947C353.097,253.068,372.438,265.001,392.494,264.104" fill="rgba(22, 194, 111, 0.4)" class="triangle-float2"></path><path d="M928.421,72.916C951.006,72.81,967.519,54.284,978.784,34.709C990.014,15.195,996.776,-7.863,986.407,-27.847C975.304,-49.246,952.528,-62.611,928.421,-62.358C904.72,-62.109,883.523,-47.636,872.509,-26.649C862.213,-7.031,866.381,15.869,877.229,35.187C888.354,54.997,905.701,73.023,928.421,72.916" fill="rgba(22, 194, 111, 0.4)" class="triangle-float2"></path><path d="M1041.663,263.783C1066.931,261.558,1087.852,247.068,1101.63,225.77C1117.03,201.964,1129.501,173.127,1116.663,147.847C1102.901,120.747,1072.043,106.763,1041.663,107.687C1012.795,108.565,989.473,127.687,974.172,152.182C957.669,178.6,943.996,211.576,960.115,238.23C975.914,264.355,1011.25,266.461,1041.663,263.783" fill="rgba(22, 194, 111, 0.4)" class="triangle-float3"></path><path d="M204.073,500.428C221.995,499.661,235.426,486.418,244.882,471.175C255.055,454.777,264.591,434.955,255.122,418.141C245.546,401.138,223.575,398.033,204.073,398.713C185.989,399.344,168.387,406.127,158.841,421.499C148.759,437.733,147.229,458.367,156.731,474.947C166.282,491.612,184.883,501.249,204.073,500.428" fill="rgba(22, 194, 111, 0.4)" class="triangle-float3"></path><path d="M1121.006,118.931C1151.75,117.582,1171.883,89.227,1185.176,61.472C1196.47,37.89,1194.947,11.843,1183.567,-11.697C1170.134,-39.483,1151.86,-70.531,1121.006,-71.268C1089.45,-72.022,1068.001,-42.612,1053.041,-14.817C1039.045,11.187,1032.904,41.237,1046.282,67.564C1060.958,96.445,1088.641,120.351,1121.006,118.931" fill="rgba(22, 194, 111, 0.4)" class="triangle-float3"></path></g><defs><mask id="SvgjsMask1071"><rect width="1440" height="560" fill="#ffffff"></rect></mask><style>
            @keyframes float1 {
                0%{transform: translate(0, 0)}
                50%{transform: translate(-10px, 0)}
                100%{transform: translate(0, 0)}
            }

            .triangle-float1 {
                animation: float1 5s infinite;
            }

            @keyframes float2 {
                0%{transform: translate(0, 0)}
                50%{transform: translate(-5px, -5px)}
                100%{transform: translate(0, 0)}
            }

            .triangle-float2 {
                animation: float2 4s infinite;
            }

            @keyframes float3 {
                0%{transform: translate(0, 0)}
                50%{transform: translate(0, -10px)}
                100%{transform: translate(0, 0)}
            }

            .triangle-float3 {
                animation: float3 6s infinite;
            }
        </style></defs></svg>